<svg viewBox="0 0 30 30" fill="none" xmlns="http://www.w3.org/2000/svg"><path fill-rule="evenodd" clip-rule="evenodd" d="M.62 3.03c-.62 1.2-.62 2.75-.62 5.87v11.86c0 3.11 0 4.66.62 5.87a5.36 5.36 0 0 0 2.44 2.41c1.23.62 2.79.62 5.94.62h12c3.15 0 4.71 0 5.94-.62a5.36 5.36 0 0 0 2.44-2.41c.62-1.19.62-2.76.62-5.87v-11.86c0-3.12 0-4.66-.62-5.87a5.36 5.36 0 0 0-2.44-2.42c-1.23-.61-2.79-.61-5.94-.61h-12c-3.15 0-4.71 0-5.94.61a5.36 5.36 0 0 0-2.44 2.42Zm12.02 26.63v-10.43h-3.79v-4.32h3.8v-3.26c0-3.73 2.22-5.8 5.65-5.8 1.65 0 3.36.3 3.36.3v3.66h-1.9c-1.87 0-2.45 1.14-2.45 2.33v2.8h4.18l-.68 4.31h-3.45v10.4h-4.72Z" fill="#1C1C1C"/></svg>