<svg viewBox="0 0 30 30" fill="none" xmlns="http://www.w3.org/2000/svg"><path d="M15 9.88c-2.76 0-5 2.23-5 4.95a4.98 4.98 0 0 0 5 4.94c2.75 0 5-2.22 5-4.94a4.98 4.98 0 0 0-5-4.95Zm15 4.95c0-2.05.02-4.08-.1-6.12-.12-2.38-.66-4.48-2.42-6.22-1.76-1.74-3.89-2.28-6.29-2.4-2.07-.1-4.12-.09-6.19-.09-2.07 0-4.12-.02-6.2.1-2.4.11-4.52.65-6.28 2.39-1.76 1.74-2.3 3.84-2.42 6.22-.12 2.04-.1 4.07-.1 6.12 0 2.04-.02 4.07.1 6.12.12 2.37.66 4.48 2.42 6.22 1.76 1.74 3.89 2.27 6.29 2.39 2.07.11 4.12.1 6.19.1 2.07 0 4.12.01 6.2-.1 2.4-.12 4.52-.66 6.28-2.4 1.76-1.73 2.3-3.84 2.42-6.21.12-2.05.1-4.07.1-6.12Zm-15 7.6c-4.26 0-7.7-3.4-7.7-7.6a7.65 7.65 0 0 1 7.7-7.61c4.25 0 7.7 3.4 7.7 7.6a7.65 7.65 0 0 1-7.7 7.62Zm8-13.75c-.99 0-1.79-.79-1.79-1.77s.8-1.78 1.8-1.78a1.79 1.79 0 0 1 1.66 2.46 1.77 1.77 0 0 1-1.66 1.1Z" fill="#1C1C1C"/></svg>